<svg xmlns="http://www.w3.org/2000/svg" viewBox="0 0 1024 1024" width="1024" height="1024">
<rect width="1024" height="1024" fill="#FBFBFA"/>
<g transform="translate(0,1024) scale(0.1,-0.1)">
<path d="M5284 6902 l-141 -3 -213 -217 c-118 -119 -238 -243 -268 -274 l-55
-57 74 -79 c41 -44 88 -91 105 -105 l30 -26 -4 29 c-4 25 -1 29 23 32 27 3 27
4 -39 74 -36 40 -66 74 -66 76 0 3 102 109 228 236 l227 232 248 0 248 0 -3
40 -3 40 -125 3 c-69 1 -188 1 -266 -1z m146 -33 c3 0 -4 -4 -15 -9 -28 -12
-95 -12 -95 0 0 17 43 28 75 19 16 -5 32 -9 35 -10z m-275 -3 c12 -12 12 -15
1 -19 -16 -7 -26 1 -26 20 0 17 8 17 25 -1z m465 -2 c0 -11 -8 -15 -32 -13
-48 4 -57 13 -23 20 48 11 55 10 55 -7z m-630 -184 c0 -5 -5 -10 -11 -10 -5 0
-7 5 -4 10 3 6 8 10 11 10 2 0 4 -4 4 -10z M4359 6791 c-35 -35 -39 -44 -39
-91 0 -48 4 -56 40 -92 l39 -40 2 -254 1 -254 142 0 c139 0 143 1 166 25 22
24 22 26 6 44 -15 16 -31 19 -122 17 l-104 -1 0 215 0 215 29 17 c72 41 81
147 17 205 -31 28 -43 33 -87 33 -46 0 -55 -4 -90 -39z m129 -53 c27 -27 0
-88 -39 -88 -40 0 -65 60 -37 88 7 7 24 12 38 12 14 0 31 -5 38 -12z m59 -625
c32 -7 18 -23 -21 -23 -38 0 -47 6 -39 27 3 9 12 12 22 7 9 -3 26 -9 38 -11z
m117 1 c27 -10 7 -24 -35 -24 -44 0 -53 17 -11 23 15 2 28 5 29 6 1 0 8 -2 17
-5z M5932 6640 c0 -19 2 -27 5 -17 2 9 2 25 0 35 -3 9 -5 1 -5 -18z M5256
6592 c-3 -5 1 -9 9 -9 8 0 12 4 9 9 -3 4 -7 8 -9 8 -2 0 -6 -4 -9 -8z M5643
6583 c9 -2 23 -2 30 0 6 3 -1 5 -18 5 -16 0 -22 -2 -12 -5z M5879 6533 c-13
-16 -12 -17 4 -4 9 7 17 15 17 17 0 8 -8 3 -21 -13z M5040 6486 c0 -2 7 -9 15
-16 13 -11 14 -10 9 4 -5 14 -24 23 -24 12z M4911 6443 l-20 -28 142 -143 142
-142 -200 -200 -200 -200 -283 2 -283 3 -2 160 -2 160 65 5 64 5 0 40 0 40
-74 3 c-41 2 -90 0 -107 -3 l-33 -6 0 -244 0 -245 213 -1 c116 0 273 0 347 1
l135 1 240 239 240 240 -171 170 c-93 94 -175 170 -181 170 -6 0 -20 -12 -32
-27z m293 -309 c5 -14 4 -15 -9 -4 -17 14 -19 20 -6 20 5 0 12 -7 15 -16z
m-914 -34 c12 -8 11 -10 -7 -10 -12 0 -25 5 -28 10 -8 13 15 13 35 0z m-119
-53 l-21 -21 0 25 c0 34 21 55 33 33 7 -12 3 -22 -12 -37z m1004 13 c-3 -5
-11 -10 -16 -10 -6 0 -7 5 -4 10 3 6 11 10 16 10 6 0 7 -4 4 -10z m-20 -30
c-3 -5 -10 -10 -16 -10 -5 0 -9 5 -9 10 0 6 7 10 16 10 8 0 12 -4 9 -10z
m-335 -314 c0 -3 -4 -8 -10 -11 -5 -3 -10 -1 -10 4 0 6 5 11 10 11 6 0 10 -2
10 -4z m-376 -36 c-7 -7 -19 -7 -35 -1 -23 9 -22 10 11 10 23 1 31 -2 24 -9z
m192 3 c-10 -11 -36 -12 -36 -2 0 5 10 9 22 9 12 0 18 -3 14 -7z M5087 6439
c7 -7 15 -10 18 -7 3 3 -2 9 -12 12 -14 6 -15 5 -6 -5z M5200 6414 c-25 -29
-29 -39 -18 -45 7 -5 102 -9 211 -9 l197 0 0 -235 0 -235 -65 0 -65 0 -2 48
-1 47 -4 -43 c-2 -24 0 -49 6 -56 13 -16 1 -33 -30 -41 -21 -5 -31 -1 -46 18
-18 23 -27 25 -124 28 l-104 4 -3 -42 -3 -43 265 0 266 0 0 320 0 320 -224 0
-224 0 -32 -36z m417 -286 c-3 -8 -6 -5 -6 6 -1 11 2 17 5 13 3 -3 4 -12 1
-19z m0 -200 c-3 -7 -5 -2 -5 12 0 14 2 19 5 13 2 -7 2 -19 0 -25z m-363 -89
c-7 -11 -64 -12 -64 -1 0 4 5 13 11 19 13 13 62 -4 53 -18z M5446 6265 c4 -8
8 -15 10 -15 2 0 4 7 4 15 0 8 -4 15 -10 15 -5 0 -7 -7 -4 -15z M5453 6200 c0
-25 2 -35 4 -22 2 12 2 32 0 45 -2 12 -4 2 -4 -23z M5453 6045 c0 -33 2 -45 4
-27 2 18 2 45 0 60 -2 15 -4 0 -4 -33z M4300 5870 c0 -5 5 -10 11 -10 5 0 7 5
4 10 -3 6 -8 10 -11 10 -2 0 -4 -4 -4 -10z M2040 5400 c-44 -44 -34 -108 21
-139 80 -45 163 74 96 137 -30 29 -89 30 -117 2z M8920 5395 c-46 -49 -24
-126 41 -140 58 -13 119 45 105 101 -17 65 -100 88 -146 39z m61 -25 c10 -6
19 -17 19 -25 0 -8 -9 -19 -19 -25 -22 -11 -38 -13 -28 -3 4 3 2 12 -4 19 -11
13 -6 44 6 44 4 0 15 -5 26 -10z M2920 5223 l0 -186 -22 20 c-13 12 -48 33
-78 49 -47 23 -67 27 -135 27 -222 -1 -368 -159 -352 -383 7 -101 39 -171 109
-237 124 -116 331 -123 446 -16 l32 31 0 -49 0 -49 71 0 c61 0 70 2 65 16 -3
9 -6 229 -6 490 l0 474 -65 0 -65 0 0 -187z m74 131 c7 -19 -1 -34 -19 -34
-21 0 -28 19 -15 35 16 19 26 19 34 -1z m-354 -287 c0 -1 -14 -3 -30 -4 -30
-2 -42 11 -17 20 10 4 47 -9 47 -16z m205 -21 c12 -12 12 -15 -2 -20 -16 -6
-43 9 -43 25 0 14 30 11 45 -5z m-74 -38 c86 -29 138 -100 146 -201 9 -115
-39 -211 -124 -249 -65 -29 -162 -22 -220 15 -113 72 -143 246 -62 357 54 74
170 109 260 78z m149 -29 c0 -6 -4 -7 -10 -4 -5 3 -10 11 -10 16 0 6 5 7 10 4
6 -3 10 -11 10 -16z m-510 -163 c-16 -17 -31 4 -18 27 11 21 11 21 18 2 4 -11
4 -24 0 -29z m200 -324 c0 -23 -25 -30 -57 -17 -26 11 -33 20 -33 43 0 47 17
52 55 16 19 -18 35 -37 35 -42z m175 -13 c0 -9 -12 -14 -37 -15 -45 -1 -53 22
-10 29 37 5 47 3 47 -14z M3270 4920 l0 -490 64 0 64 0 4 218 c3 174 7 224 21
253 64 141 282 157 350 26 20 -38 26 -138 27 -404 l0 -93 65 0 65 0 0 225 c0
123 -5 246 -11 274 -18 83 -57 134 -135 172 -60 30 -77 34 -144 33 -86 -1
-148 -21 -202 -65 l-38 -30 0 186 0 185 -65 0 -65 0 0 -490z m85 424 c0 -19
-6 -30 -16 -32 -21 -4 -32 24 -18 49 14 28 34 18 34 -17z m279 -253 c19 -7 19
-8 -1 -13 -14 -4 -24 0 -27 8 -6 15 -1 16 28 5z m126 -35 c0 -9 12 -19 28 -22
30 -8 42 -20 42 -46 0 -19 -29 -26 -31 -8 -1 6 -2 15 -3 22 -2 18 -48 39 -69
32 -18 -6 -50 13 -43 25 3 4 21 8 40 9 27 2 36 -1 36 -12z m85 -366 c-3 -5 2
-10 11 -10 16 0 16 -1 2 -12 -9 -7 -18 -20 -21 -28 -3 -8 -6 -1 -6 16 -1 17 2
34 6 37 10 10 15 8 8 -3z m33 -66 c-10 -10 -28 6 -28 24 0 15 1 15 17 -1 9 -9
14 -19 11 -23z m9 -70 c1 -27 0 -59 -3 -71 -5 -28 -40 -31 -49 -4 -8 26 -2 81
9 81 5 0 6 3 3 6 -10 10 13 46 26 41 7 -2 13 -26 14 -53z M5990 4920 l0 -490
70 0 70 0 0 218 c0 190 3 222 19 258 49 107 211 147 303 74 56 -43 62 -75 66
-322 l4 -228 64 0 64 0 0 233 c0 251 -6 295 -53 366 -16 24 -48 49 -88 71 -57
30 -73 34 -144 34 -67 0 -90 -4 -140 -27 -33 -16 -69 -37 -80 -47 l-20 -19 0
182 0 182 -67 3 -68 3 0 -491z m80 425 c0 -14 -4 -25 -10 -25 -11 0 -14 33 -3
43 11 11 13 8 13 -18z m408 -297 c3 -14 0 -15 -22 -5 -13 6 -22 15 -19 20 8
14 38 3 41 -15z m68 -43 c7 -27 -5 -50 -13 -27 -3 7 -11 19 -19 26 -19 20 -18
26 6 26 13 0 22 -9 26 -25z m32 -272 c3 -182 5 -212 15 -206 4 2 7 -7 7 -21 0
-30 -16 -42 -36 -26 -24 21 -15 400 9 400 2 0 4 -66 5 -147z M1383 5339 c-242
-76 -275 -342 -56 -453 18 -9 91 -32 163 -51 197 -52 242 -82 242 -161 0 -40
-22 -76 -66 -108 -24 -19 -42 -21 -149 -21 -113 0 -127 2 -182 28 -32 15 -74
39 -92 53 l-33 25 -26 -56 -26 -55 23 -19 c74 -61 208 -101 335 -101 222 0
354 99 354 264 -1 104 -48 175 -147 217 -23 10 -98 32 -165 50 -163 42 -206
63 -225 107 -30 73 13 149 98 172 26 7 81 10 134 8 72 -4 102 -10 150 -33 33
-16 63 -29 68 -29 4 -1 18 23 32 52 l24 52 -48 24 c-114 58 -288 73 -408 35z
m57 -44 c0 -8 -9 -15 -20 -15 -11 0 -20 7 -20 15 0 8 9 15 20 15 11 0 20 -7
20 -15z m318 -36 c-6 -4 -20 -3 -31 2 -15 8 -16 13 -6 25 10 13 14 12 31 -3
14 -12 15 -18 6 -24z m-448 -263 c0 -11 24 -29 33 -24 1 1 12 -4 25 -11 20
-11 21 -14 7 -27 -13 -13 -19 -12 -50 13 -33 26 -47 63 -25 63 6 0 10 -6 10
-14z m253 -92 c21 -4 37 -12 37 -20 0 -10 -15 -14 -55 -13 -56 2 -79 14 -54
30 17 10 23 11 72 3z m111 -19 c6 -8 23 -16 39 -17 26 -2 33 -12 42 -57 5 -26
-11 -28 -18 -2 -3 14 -22 25 -61 36 -51 15 -67 31 -49 48 11 12 35 8 47 -8z
m83 -358 c-2 -6 -10 -11 -19 -13 -13 -2 -14 3 -5 33 10 33 11 33 19 12 5 -12
7 -27 5 -32z m-364 -23 c56 -19 63 -35 10 -24 -20 5 -40 7 -44 4 -5 -2 -13 5
-19 16 -13 24 -7 25 53 4z m212 -24 c-3 -5 -16 -10 -28 -9 -21 0 -21 1 -2 9
28 12 37 12 30 0z M7218 4891 l-3 -461 73 0 72 0 0 139 0 140 130 3 130 3 78
-113 c42 -62 86 -126 97 -143 19 -28 23 -29 98 -29 l78 0 -106 154 -105 154
44 26 c96 56 146 147 146 267 0 99 -28 166 -94 226 -88 80 -113 86 -393 91
l-243 4 -2 -461z m92 409 c0 -4 -11 -12 -24 -18 -20 -9 -24 -8 -21 6 2 9 4 20
4 24 1 8 41 -2 41 -12z m194 5 c-4 -8 -17 -15 -31 -15 -13 0 -31 7 -39 15 -14
13 -10 15 30 15 36 0 44 -3 40 -15z m244 -28 l3 -28 -28 17 c-15 10 -30 19
-32 20 -11 8 14 25 32 22 16 -2 23 -11 25 -31z m-71 -62 c165 -49 183 -281 27
-360 -33 -17 -63 -21 -191 -23 l-153 -4 0 201 0 201 133 0 c90 0 150 -5 184
-15z m193 -76 c0 -5 -4 -9 -10 -9 -5 0 -10 7 -10 16 0 8 5 12 10 9 6 -3 10
-10 10 -16z m-24 -286 c-5 -12 -10 -13 -17 -6 -8 8 -7 16 2 26 16 17 24 5 15
-20z m-566 -14 c0 -16 -4 -28 -9 -25 -8 5 -3 56 5 56 2 0 4 -14 4 -31z m299
-51 c10 -1 8 -5 -5 -15 -13 -10 -31 -12 -59 -7 -22 4 -46 7 -52 7 -7 0 -13 4
-13 8 0 13 52 16 129 7z m-173 -5 c-11 -11 -46 -14 -46 -3 0 6 12 10 27 10 14
0 23 -3 19 -7z m285 -14 c-17 -7 -20 -14 -15 -34 3 -14 2 -25 -3 -25 -10 0
-10 37 1 62 5 10 14 14 23 11 13 -5 12 -8 -6 -14z m24 -109 c3 -5 1 -10 -4
-10 -6 0 -11 5 -11 10 0 6 2 10 4 10 3 0 8 -4 11 -10z m-425 -80 c3 -88 1
-102 -12 -97 -8 2 -12 16 -10 33 1 16 3 56 3 89 1 74 17 53 19 -25z m587 -92
c30 -28 29 -35 -4 -34 -23 1 -29 6 -31 29 -4 33 4 34 35 5z M5470 5205 l0 -75
-55 0 -55 0 0 -55 0 -54 58 -3 57 -3 5 -230 c6 -254 9 -271 72 -319 77 -57
213 -61 279 -7 l23 19 -19 43 c-10 24 -20 45 -21 47 -1 2 -13 -4 -27 -13 -17
-11 -42 -15 -78 -13 -44 3 -55 8 -73 31 -20 26 -21 43 -24 238 l-3 209 95 0
96 0 0 55 0 55 -95 0 -95 0 0 75 0 75 -70 0 -70 0 0 -75z m63 -228 c-3 -5 -11
4 -19 18 -8 15 -11 32 -7 38 4 7 12 -1 19 -18 7 -17 10 -34 7 -38z m102 -463
c15 -23 15 -28 2 -41 -12 -13 -16 -13 -29 0 -12 12 -16 43 -9 65 4 10 22 -2
36 -24z m149 -25 c-8 -14 -24 -10 -24 6 0 9 6 12 15 9 8 -4 12 -10 9 -15z
M4320 5130 c-58 -10 -149 -45 -179 -68 l-23 -19 27 -52 26 -53 23 21 c39 37
133 63 206 59 108 -6 158 -46 167 -132 l6 -46 -124 0 c-193 0 -284 -31 -327
-110 -43 -79 -36 -162 21 -227 86 -98 292 -110 391 -23 18 17 37 30 41 30 4 0
5 -18 1 -40 l-6 -40 65 0 66 0 -3 268 c-3 252 -4 269 -25 308 -25 47 -76 89
-132 109 -52 18 -164 26 -221 15z m160 -50 c0 -5 -7 -7 -15 -4 -8 4 -12 10 -9
15 6 11 24 2 24 -11z m45 -30 c-3 -5 -13 -10 -21 -10 -8 0 -14 5 -14 10 0 6 9
10 21 10 11 0 17 -4 14 -10z m56 -9 c7 11 9 10 9 -3 0 -10 -7 -18 -15 -18 -8
0 -15 8 -14 18 0 12 2 13 6 3 5 -11 7 -11 14 0z m-387 -34 c-3 -9 -10 -17 -15
-17 -11 0 -12 34 -2 44 11 11 24 -9 17 -27z m202 -209 c8 -13 -15 -28 -43 -28
-29 0 -40 20 -19 35 18 14 52 9 62 -7z m174 -107 c0 -83 -55 -143 -150 -162
-67 -14 -130 0 -166 36 -33 33 -34 102 -1 133 36 34 66 41 195 41 l122 1 0
-49z m-375 29 c4 -6 2 -25 -4 -43 -5 -17 -15 -51 -21 -74 -6 -24 -14 -43 -19
-43 -4 0 -14 15 -23 33 -18 39 -8 93 24 120 23 19 34 21 43 7z m150 -231 c8
-24 4 -29 -22 -33 -21 -4 -73 20 -73 34 0 5 17 11 38 13 20 2 40 4 44 5 4 1
10 -7 13 -19z m140 1 c-3 -5 -13 -10 -21 -10 -8 0 -12 5 -9 10 3 6 13 10 21
10 8 0 12 -4 9 -10z M5217 5129 c-53 -12 -96 -36 -134 -72 l-33 -31 0 52 0 52
-65 0 -65 0 0 -350 0 -350 68 0 67 0 -3 179 c-5 228 5 280 62 337 42 43 93 64
154 64 l33 0 -3 63 c-3 69 -9 73 -81 56z m-13 -67 c3 -5 -1 -9 -9 -9 -8 0 -12
4 -9 9 3 4 7 8 9 8 2 0 6 -4 9 -8z m-144 -117 c0 -8 -4 -15 -10 -15 -5 0 -7 7
-4 15 4 8 8 15 10 15 2 0 4 -7 4 -15z m-100 -421 c0 -8 -5 -12 -10 -9 -6 4 -8
11 -5 16 9 14 15 11 15 -7z M8294 5126 c-63 -15 -157 -57 -170 -77 -3 -6 4
-33 16 -59 l22 -48 36 24 c83 57 241 71 301 27 33 -25 61 -79 61 -119 l0 -32
-152 -4 c-174 -5 -220 -18 -275 -81 -51 -58 -62 -155 -25 -223 18 -33 77 -81
119 -95 21 -8 74 -14 118 -14 86 0 155 23 204 68 l23 22 -4 -42 -4 -43 67 0
67 0 -1 253 c-2 251 -2 252 -29 309 -29 62 -84 110 -147 128 -61 18 -163 20
-227 6z m226 -80 c-13 -14 -30 3 -30 31 l0 25 19 -23 c11 -13 16 -28 11 -33z
m110 -71 c0 -9 -6 -12 -15 -9 -8 4 -12 10 -9 15 8 14 24 10 24 -6z m-335 -185
c3 -5 -9 -13 -27 -18 -38 -10 -43 -9 -35 13 7 16 52 21 62 5z m155 0 c12 -8
11 -10 -7 -10 -13 0 -23 5 -23 10 0 13 11 13 30 0z m110 -99 c0 -84 -66 -153
-159 -166 -50 -7 -114 6 -142 28 -40 31 -51 96 -23 136 28 40 69 50 202 51
l122 0 0 -49z m-382 -20 c-4 -17 -35 -38 -43 -29 -4 4 -4 16 0 27 7 23 47 25
43 2z m65 -176 c-4 -15 -36 -12 -41 3 -3 9 3 13 19 10 13 -1 23 -7 22 -13z
m136 -24 c8 -5 -4 -9 -33 -9 -28 -1 -44 3 -41 8 8 12 55 13 74 1z M2030 4780
l0 -350 70 0 70 0 0 350 0 350 -70 0 -70 0 0 -350z m73 228 c-3 -45 -12 -93
-20 -108 l-13 -25 0 30 c0 17 4 37 10 45 6 9 5 20 -3 29 -9 12 -9 13 1 7 8 -5
12 1 12 19 0 15 -4 24 -10 20 -13 -8 -13 4 1 43 18 54 29 25 22 -60z m-6 -135
c-3 -10 -5 -4 -5 12 0 17 2 24 5 18 2 -7 2 -21 0 -30z m-8 -82 c8 -14 7 -22
-4 -31 -13 -11 -15 -8 -15 19 0 36 5 39 19 12z m-6 -81 c3 -11 1 -20 -4 -20
-5 0 -9 9 -9 20 0 11 2 20 4 20 2 0 6 -9 9 -20z M8920 4763 c0 -381 -4 -427
-42 -465 -17 -17 -29 -19 -72 -15 -28 2 -59 8 -68 12 -13 5 -21 -3 -37 -36
-12 -24 -21 -46 -21 -51 0 -12 63 -36 113 -43 88 -13 190 34 229 108 23 41 23
48 26 450 l3 407 -65 0 -66 0 0 -367z m43 -248 c4 -8 2 -17 -3 -20 -6 -4 -10
3 -10 14 0 25 6 27 13 6z m-5 -161 c-2 -19 0 -34 4 -34 15 0 8 -48 -11 -71
-15 -19 -23 -21 -40 -14 -22 10 -22 10 9 58 20 32 30 62 31 90 1 23 3 34 6 23
3 -10 3 -34 1 -52z M7310 3975 c-16 -19 -6 -45 19 -45 23 0 35 28 20 46 -15
18 -24 18 -39 -1z M2430 3920 l0 -61 -30 16 c-62 32 -129 7 -155 -58 -42 -105
60 -204 158 -153 24 13 27 13 27 0 0 -10 7 -14 20 -12 12 2 21 6 20 11 0 4 0
77 0 162 0 148 -1 155 -20 155 -18 0 -20 -7 -20 -60z m-25 -95 c33 -32 33 -78
-1 -112 -20 -20 -31 -24 -57 -19 -46 9 -67 33 -67 77 0 70 77 103 125 54z
M6440 3805 l0 -156 113 3 c104 3 112 4 112 23 0 18 -8 20 -87 23 l-88 3 0 44
0 45 75 0 c68 0 75 2 75 20 0 18 -7 20 -75 20 l-75 0 0 45 0 45 85 0 c78 0 85
2 85 20 0 19 -7 20 -110 20 l-110 0 0 -155z M1820 3770 l0 -120 26 0 c25 0 25
1 21 68 -6 80 11 122 47 122 22 0 36 16 36 41 0 14 -27 11 -60 -6 -27 -14 -30
-14 -30 0 0 8 -9 15 -20 15 -19 0 -20 -7 -20 -120z M2022 3870 c-98 -60 -50
-220 67 -220 61 0 109 36 83 62 -7 7 -18 5 -36 -7 -30 -20 -75 -13 -102 16 -9
10 -15 21 -13 24 3 2 42 5 88 6 93 2 100 7 81 64 -22 68 -103 94 -168 55z
m116 -47 l27 -28 -69 -3 c-37 -2 -71 -1 -74 2 -2 3 3 17 12 31 23 35 68 34
104 -2z M2542 3795 c3 -79 7 -99 24 -116 28 -27 85 -35 123 -16 20 10 30 11
28 4 -1 -6 8 -13 21 -15 22 -3 22 -2 22 117 l0 121 -25 0 c-24 0 -24 -2 -27
-87 -3 -84 -4 -88 -30 -103 -25 -13 -31 -13 -55 0 -27 15 -28 19 -31 103 -3
86 -3 87 -29 87 l-25 0 4 -95z M2880 3877 c-32 -16 -70 -73 -70 -104 0 -66 59
-123 127 -123 31 0 93 33 93 50 0 19 -29 22 -52 6 -78 -55 -161 52 -93 119 27
28 66 32 89 10 19 -19 42 -19 50 0 7 20 -49 55 -89 55 -16 0 -41 -6 -55 -13z
M3118 3874 c-34 -18 -58 -62 -58 -104 0 -92 96 -148 180 -105 30 15 39 38 20
50 -5 3 -20 -1 -32 -9 -27 -19 -48 -20 -82 -5 -24 11 -42 37 -32 47 3 2 41 4
85 3 50 -1 82 3 87 10 3 6 1 29 -7 51 -22 68 -97 97 -161 62z m100 -40 c42
-29 28 -44 -43 -44 -69 0 -79 8 -48 42 20 22 61 23 91 2z M3560 3769 c0 -116
1 -120 21 -117 18 3 21 10 22 79 2 83 15 109 52 109 14 0 25 7 28 21 7 28 -14
34 -52 14 -27 -14 -31 -14 -31 0 0 8 -9 15 -20 15 -19 0 -20 -7 -20 -121z
M3773 3880 c-13 -5 -32 -24 -43 -42 -51 -85 4 -188 100 -188 38 0 90 26 90 44
0 21 -23 26 -45 10 -10 -8 -27 -14 -37 -14 -29 0 -78 29 -78 45 0 16 14 18
107 15 73 -2 82 8 63 65 -20 61 -93 91 -157 65z m95 -46 c43 -30 28 -44 -49
-44 -73 0 -75 2 -41 43 19 21 60 22 90 1z M3990 3727 c0 -164 0 -164 23 -162
20 2 22 7 20 59 -1 32 1 56 5 54 4 -2 19 -10 34 -17 40 -20 91 -7 127 35 87
98 -23 239 -139 179 -27 -14 -30 -14 -30 0 0 8 -9 15 -20 15 -19 0 -20 -7 -20
-163z m178 96 c6 -9 12 -34 12 -54 0 -86 -111 -109 -139 -29 -12 37 -1 71 31
95 27 19 77 13 96 -12z M4280 3799 c0 -87 1 -92 29 -120 34 -33 83 -39 119
-13 20 14 22 14 22 0 0 -10 9 -16 25 -16 l26 0 -3 118 c-3 113 -4 117 -25 120
-22 3 -23 1 -23 -75 0 -89 -10 -110 -56 -119 -25 -5 -37 -1 -53 15 -18 18 -21
33 -21 101 0 73 -2 80 -20 80 -19 0 -20 -7 -20 -91z M4570 3770 c0 -111 1
-120 19 -120 17 0 19 9 23 81 3 71 6 83 27 100 13 11 30 18 38 15 9 -4 13 3
13 19 0 29 -24 33 -57 10 -19 -13 -22 -13 -27 0 -3 8 -12 15 -21 15 -13 0 -15
-19 -15 -120z M4740 3730 l0 -160 24 0 c24 0 24 2 19 56 l-6 56 31 -16 c53
-27 89 -21 133 23 44 43 51 88 24 141 -28 53 -107 77 -152 45 -19 -13 -22 -13
-27 0 -3 8 -15 15 -26 15 -19 0 -20 -6 -20 -160z m154 109 c37 -17 53 -72 31
-105 -36 -55 -103 -56 -131 -3 -12 24 -13 37 -5 61 19 53 55 69 105 47z M5085
3880 c-61 -25 -89 -102 -60 -163 39 -84 168 -88 210 -7 53 102 -45 214 -150
170z m85 -45 c33 -17 44 -43 35 -85 -8 -34 -22 -48 -61 -56 -73 -14 -117 89
-58 135 32 25 46 26 84 6z M5322 3874 c-65 -45 -28 -124 58 -124 9 0 25 -6 35
-14 17 -12 17 -16 5 -31 -14 -17 -49 -17 -106 0 -35 11 -39 -22 -4 -40 58 -30
145 -12 156 32 12 46 -3 71 -49 83 -63 16 -87 28 -87 44 0 21 32 28 85 20 41
-6 45 -4 45 14 0 33 -98 44 -138 16z M5559 3876 c-15 -9 -34 -31 -43 -50 -43
-91 11 -176 112 -176 47 0 89 28 79 53 -5 15 -9 15 -34 2 -39 -20 -66 -19 -97
6 -46 36 -34 44 59 41 70 -3 86 -1 91 12 9 24 -3 61 -29 92 -28 32 -98 42
-138 20z m91 -36 c11 -6 24 -19 30 -30 10 -19 7 -20 -60 -20 -74 0 -83 7 -50
40 22 22 51 26 80 10z M6010 3770 c0 -113 1 -120 20 -120 18 0 20 7 20 75 0
67 3 79 24 100 15 15 31 22 40 19 12 -5 16 0 16 20 0 30 -23 35 -57 11 -19
-13 -22 -13 -27 0 -3 8 -12 15 -21 15 -13 0 -15 -19 -15 -120z M6209 3867
c-88 -59 -59 -197 44 -214 41 -6 74 1 101 22 15 11 17 17 7 29 -10 12 -16 12
-42 -1 -36 -18 -83 -9 -104 20 -8 12 -15 24 -15 27 0 3 35 4 77 2 93 -4 118 8
108 51 -4 15 -23 40 -41 57 -43 37 -87 39 -135 7z m111 -37 c33 -33 24 -40
-50 -40 -38 0 -70 4 -70 10 0 19 44 50 72 50 15 0 37 -9 48 -20z M6727 3883
c-4 -3 -7 -57 -7 -120 l0 -113 25 0 c25 0 25 2 25 78 0 42 4 82 8 88 13 21 54
36 78 30 32 -8 44 -42 44 -127 0 -62 2 -69 20 -69 19 0 20 7 20 91 0 87 -1 92
-29 120 -34 33 -75 38 -121 14 -27 -14 -30 -14 -30 0 0 15 -21 21 -33 8z
M7043 3870 c-36 -22 -60 -82 -49 -125 16 -64 100 -101 162 -71 32 15 34 15 34
-2 0 -10 -7 -28 -16 -40 -18 -26 -83 -30 -126 -8 -25 13 -29 13 -38 -4 -14
-26 -14 -27 21 -39 42 -14 125 -14 152 1 42 22 46 37 47 176 0 112 -2 132 -15
132 -9 0 -18 -6 -21 -14 -5 -12 -9 -12 -32 0 -38 19 -81 17 -119 -6z m122 -45
c48 -47 19 -119 -48 -119 -70 0 -102 71 -55 121 29 31 72 30 103 -2z M7309
3883 c-1 -5 -1 -57 0 -118 0 -103 2 -110 21 -113 19 -3 20 2 20 117 0 114 -1
121 -20 121 -11 0 -21 -3 -21 -7z M7424 3877 c-2 -7 -3 -60 -2 -118 3 -99 4
-104 26 -107 21 -3 22 -1 22 76 0 70 3 81 24 101 19 18 31 22 55 16 42 -9 51
-30 51 -119 0 -69 2 -76 20 -76 18 0 20 7 20 85 0 46 -5 95 -11 108 -20 44
-94 62 -136 32 -19 -13 -22 -13 -27 0 -7 19 -35 20 -42 2z M7747 3873 c-39
-25 -62 -91 -48 -136 17 -51 53 -79 108 -84 39 -4 53 -1 76 17 22 17 25 25 16
36 -9 11 -15 11 -40 -1 -18 -10 -39 -13 -56 -9 -30 7 -63 31 -63 46 0 4 41 8
91 8 l92 0 -6 42 c-7 56 -42 89 -98 94 -31 3 -52 -1 -72 -13z m113 -45 c11
-12 20 -25 20 -30 0 -4 -31 -8 -70 -8 -74 0 -83 7 -50 40 27 27 74 26 100 -2z
M8021 3877 c-55 -28 -81 -111 -52 -166 28 -51 109 -75 165 -50 32 15 39 34 20
50 -13 10 -17 10 -24 -1 -6 -9 -26 -15 -51 -15 -31 0 -46 6 -60 24 -11 13 -18
25 -16 27 1 2 42 4 90 5 49 2 90 6 93 11 11 17 -18 78 -47 103 -34 28 -79 32
-118 12z m99 -47 c33 -33 24 -40 -50 -40 -40 0 -70 4 -70 10 0 21 41 50 70 50
17 0 39 -9 50 -20z M8240 3770 c0 -113 1 -120 20 -120 18 0 20 7 20 74 0 83
18 118 61 120 34 2 41 46 7 46 -13 0 -34 -7 -46 -16 -20 -14 -22 -14 -22 0 0
9 -9 16 -20 16 -19 0 -20 -7 -20 -120z M5787 3709 c-18 -11 -23 -44 -7 -54 6
-4 6 -15 0 -31 -14 -35 -12 -44 5 -44 16 0 33 35 42 85 6 37 -13 58 -40 44z
M3338 3703 c0 -5 -2 -26 -3 -48 -1 -22 -4 -46 -6 -54 -2 -8 3 -16 13 -18 12
-3 20 9 33 47 9 28 14 57 11 65 -5 15 -45 21 -48 8z" fill="#303C46"/>
<path d="M5342 6879 c-35 -13 -26 -29 16 -28 30 0 90 16 72 18 -3 1 -19 5 -35
10 -17 4 -40 4 -53 0z M5130 6867 c0 -19 10 -27 26 -20 11 4 11 7 -1 19 -17
18 -25 18 -25 1z M5565 6871 c-34 -7 -25 -16 23 -20 24 -2 32 2 32 13 0 17 -7
18 -55 7z M5731 6735 c-16 -14 -33 -35 -36 -45 -6 -19 -17 -20 -239 -20 l-233
0 -86 -86 c-78 -79 -85 -88 -75 -109 20 -45 38 -39 118 40 l77 77 209 -1 209
-1 25 -29 c58 -67 136 -69 203 -8 23 23 27 34 27 83 0 50 -3 59 -34 90 -30 30
-40 34 -84 34 -39 0 -57 -6 -81 -25z m109 -65 c11 -11 20 -27 20 -35 0 -17
-35 -55 -51 -55 -50 0 -72 82 -26 100 32 13 35 12 57 -10z M4975 6680 c-3 -5
-1 -10 4 -10 6 0 11 5 11 10 0 6 -2 10 -4 10 -3 0 -8 -4 -11 -10z M5378 6078
c-3 -224 1 -245 51 -233 30 8 43 25 31 40 -5 6 -8 92 -8 191 1 99 -1 185 -6
192 -4 6 -20 12 -36 12 l-29 0 -3 -202z M4810 6179 c0 -11 8 -34 17 -50 l17
-29 -79 -80 -79 -80 -191 -2 c-190 -3 -190 -3 -193 -26 -7 -49 6 -52 215 -52
l195 0 126 125 126 125 -50 45 c-55 50 -104 61 -104 24z M5180 6146 c0 -2 7
-9 15 -16 13 -11 14 -10 9 4 -5 14 -24 23 -24 12z M5611 6134 c0 -11 3 -14 6
-6 3 7 2 16 -1 19 -3 4 -6 -2 -5 -13z M4487 6117 c-8 -21 1 -27 39 -27 39 0
53 16 21 23 -12 2 -29 8 -38 11 -10 5 -19 2 -22 -7z M4618 6113 c-42 -6 -33
-23 11 -23 42 0 62 14 35 24 -9 3 -16 5 -17 5 -1 -1 -14 -4 -29 -6z M4255
6100 c3 -5 16 -10 28 -10 18 0 19 2 7 10 -20 13 -43 13 -35 0z M4162 6088 c-7
-7 -12 -23 -12 -37 l0 -25 21 21 c15 15 19 25 12 37 -7 13 -12 13 -21 4z
M5155 6060 c-3 -5 -2 -10 4 -10 5 0 13 5 16 10 3 6 2 10 -4 10 -5 0 -13 -4
-16 -10z M5130 6030 c0 -5 4 -10 9 -10 6 0 13 5 16 10 3 6 -1 10 -9 10 -9 0
-16 -4 -16 -10z M5612 5940 c0 -14 2 -19 5 -12 2 6 2 18 0 25 -3 6 -5 1 -5
-13z M5201 5857 c-18 -18 -13 -27 18 -27 38 0 47 14 17 28 -17 7 -27 7 -35 -1z
M4800 5709 c0 -5 5 -7 10 -4 6 3 10 8 10 11 0 2 -4 4 -10 4 -5 0 -10 -5 -10
-11z M4409 5679 c16 -6 28 -6 35 1 7 7 -1 10 -24 9 -33 0 -34 -1 -11 -10z
M4600 5681 c0 -10 26 -9 36 2 4 4 -2 7 -14 7 -12 0 -22 -4 -22 -9z M3321 5361
c-14 -25 -3 -53 18 -49 10 2 16 13 16 32 0 35 -20 45 -34 17z M8944 5365 c-4
-8 -1 -21 5 -29 6 -7 8 -16 4 -19 -10 -10 6 -8 28 3 10 6 19 17 19 25 0 8 -9
19 -19 25 -26 13 -31 13 -37 -5z M2960 5355 c-13 -16 -6 -35 15 -35 18 0 26
15 19 34 -8 20 -18 20 -34 1z M6057 5363 c-11 -10 -8 -43 3 -43 6 0 10 11 10
25 0 26 -2 29 -13 18z M7269 5312 c0 -4 -2 -15 -4 -24 -3 -14 1 -15 21 -6 13
6 24 14 24 18 0 10 -40 20 -41 12z M7434 5305 c8 -8 26 -15 39 -15 14 0 27 7
31 15 4 12 -4 15 -40 15 -40 0 -44 -2 -30 -15z M1400 5295 c0 -8 9 -15 20 -15
11 0 20 7 20 15 0 8 -9 15 -20 15 -11 0 -20 -7 -20 -15z M7695 5300 c-4 -6 -5
-12 -4 -14 2 -1 17 -10 32 -20 l28 -17 -3 28 c-2 20 -9 29 -25 31 -11 2 -24
-2 -28 -8z M1721 5286 c-10 -12 -9 -17 6 -25 29 -15 48 2 25 22 -17 15 -21 16
-31 3z M7850 5146 c0 -9 5 -16 10 -16 6 0 10 4 10 9 0 6 -4 13 -10 16 -5 3
-10 -1 -10 -9z M2081 5068 c-14 -39 -14 -51 -1 -43 6 4 10 -5 10 -20 0 -18 -4
-24 -12 -19 -10 6 -10 5 -1 -7 8 -9 9 -20 3 -29 -6 -8 -10 -28 -10 -45 l0 -30
13 25 c16 31 30 187 18 195 -5 3 -14 -9 -20 -27z M3606 5086 c3 -8 13 -12 27
-8 20 5 20 6 1 13 -29 11 -34 10 -28 -5z M4456 5091 c-3 -5 1 -11 9 -15 8 -3
15 -1 15 4 0 13 -18 22 -24 11z M8490 5077 c0 -28 17 -45 30 -31 5 5 0 20 -11
33 l-19 23 0 -25z M2593 5083 c-25 -9 -13 -22 17 -20 16 1 30 3 30 4 0 7 -37
20 -47 16z M3684 5059 c-7 -12 25 -31 43 -25 21 7 67 -14 69 -32 1 -7 2 -16 3
-22 2 -18 31 -11 31 8 0 26 -12 38 -42 46 -16 3 -28 13 -28 22 0 11 -9 14 -36
12 -19 -1 -37 -5 -40 -9z M5186 5062 c-3 -5 1 -9 9 -9 8 0 12 4 9 9 -3 4 -7 8
-9 8 -2 0 -6 -4 -9 -8z M6437 5063 c-3 -5 6 -14 19 -20 22 -10 25 -9 22 5 -3
18 -33 29 -41 15z M2800 5051 c0 -16 27 -31 43 -25 14 5 14 8 2 20 -15 16 -45
19 -45 5z M4490 5050 c0 -5 6 -10 14 -10 8 0 18 5 21 10 3 6 -3 10 -14 10 -12
0 -21 -4 -21 -10z M4561 5038 c-1 -10 6 -18 14 -18 8 0 15 8 15 18 0 13 -2 14
-9 3 -7 -11 -9 -11 -14 0 -4 10 -6 9 -6 -3z M4177 5034 c-10 -10 -9 -44 2 -44
13 0 23 32 13 42 -5 5 -11 5 -15 2z M5507 5033 c-4 -6 -1 -23 7 -38 18 -35 28
-19 12 20 -7 17 -15 25 -19 18z M6500 5024 c0 -3 6 -12 14 -20 8 -7 16 -19 19
-26 8 -23 20 0 13 27 -4 16 -13 25 -26 25 -11 0 -20 -3 -20 -6z M1290 4993 c0
-10 16 -31 35 -46 31 -25 37 -26 50 -13 14 13 13 16 -7 27 -13 7 -24 12 -25
11 -9 -5 -33 13 -33 24 0 8 -4 14 -10 14 -5 0 -10 -8 -10 -17z M2900 4991 c0
-5 5 -13 10 -16 6 -3 10 -2 10 4 0 5 -4 13 -10 16 -5 3 -10 2 -10 -4z M8606
4981 c-3 -5 1 -11 9 -15 9 -3 15 0 15 9 0 16 -16 20 -24 6z M5046 4945 c-3 -8
-1 -15 4 -15 6 0 10 7 10 15 0 8 -2 15 -4 15 -2 0 -6 -7 -10 -15z M1491 4901
c-25 -16 -2 -28 54 -30 40 -1 55 3 55 13 0 8 -16 16 -37 20 -49 8 -55 7 -72
-3z M2092 4885 c0 -16 2 -22 5 -12 2 9 2 23 0 30 -3 6 -5 -1 -5 -18z M1627
4893 c-18 -17 -2 -33 49 -48 39 -11 58 -22 61 -36 7 -26 23 -24 18 2 -9 45
-16 55 -42 57 -16 1 -33 9 -39 17 -12 16 -36 20 -47 8z M7831 4873 c-9 -10
-10 -18 -2 -26 7 -7 12 -6 17 6 9 25 1 37 -15 20z M6562 4863 c-5 -10 -9 -97
-10 -194 -2 -145 0 -178 12 -189 20 -16 36 -4 36 26 0 14 -3 23 -7 21 -10 -6
-12 24 -15 206 -1 81 -3 147 -5 147 -1 0 -6 -8 -11 -17z M7268 4845 c-3 -14
-1 -28 3 -31 5 -3 9 9 9 25 0 38 -6 40 -12 6z M2392 4843 c-9 -16 -9 -24 -1
-29 16 -10 28 8 19 31 -7 19 -7 19 -18 -2z M4334 4805 c-21 -15 -10 -35 19
-35 28 0 51 15 43 28 -10 16 -44 21 -62 7z M2070 4779 c0 -27 2 -30 15 -19 11
9 12 17 4 31 -14 27 -19 24 -19 -12z M7478 4792 c-28 -3 -40 -18 -15 -19 6 0
30 -3 52 -7 28 -5 46 -3 59 7 13 10 15 14 5 15 -50 6 -77 7 -101 4z M8233
4785 c-8 -22 -3 -23 35 -13 18 5 30 13 27 18 -10 16 -55 11 -62 -5z M8420
4790 c0 -5 10 -10 23 -10 18 0 19 2 7 10 -19 13 -30 13 -30 0z M7360 4780 c0
-5 9 -9 20 -7 31 5 36 17 7 17 -15 0 -27 -4 -27 -10z M7674 4772 c-11 -25 -11
-62 -1 -62 5 0 6 11 3 25 -5 20 -2 27 15 34 18 6 19 9 6 14 -9 3 -18 -1 -23
-11z M2070 4710 c0 -11 4 -20 9 -20 5 0 7 9 4 20 -3 11 -7 20 -9 20 -2 0 -4
-9 -4 -20z M4152 4713 c-32 -27 -42 -81 -24 -120 9 -18 19 -33 23 -33 5 0 13
19 19 43 6 23 16 57 21 74 16 51 -2 67 -39 36z M3837 4693 c-4 -3 -7 -20 -6
-37 0 -17 3 -24 6 -16 3 8 12 21 21 28 14 11 14 12 -2 12 -9 0 -14 5 -11 10 7
11 2 13 -8 3z M8135 4669 c-9 -26 1 -36 23 -23 25 16 26 39 3 41 -12 1 -23 -6
-26 -18z M7700 4660 c0 -5 5 -10 11 -10 5 0 7 5 4 10 -3 6 -8 10 -11 10 -2 0
-4 -4 -4 -10z M3850 4648 c0 -18 18 -34 28 -24 3 4 -2 14 -11 23 -16 16 -17
16 -17 1z M7271 4605 c0 -33 -2 -73 -3 -89 -2 -17 2 -31 10 -33 13 -5 15 9 12
97 -2 78 -18 99 -19 25z M3851 4592 c-6 -11 -7 -22 -4 -26 3 -3 2 -6 -3 -6
-11 0 -17 -55 -9 -81 9 -27 44 -24 49 4 9 39 2 120 -11 124 -6 2 -16 -4 -22
-15z M1733 4547 c-9 -30 -8 -35 5 -33 20 3 25 17 14 45 -8 21 -9 21 -19 -12z
M2530 4556 c-5 -5 -10 -23 -10 -38 0 -23 7 -32 33 -43 22 -9 36 -10 45 -3 19
16 15 27 -23 62 -24 23 -38 29 -45 22z M4945 4531 c-3 -5 -1 -12 5 -16 5 -3
10 1 10 9 0 18 -6 21 -15 7z M5599 4538 c-7 -22 -3 -53 9 -65 13 -13 17 -13
29 0 13 13 13 18 -2 41 -14 22 -32 34 -36 24z M8950 4509 c0 -11 4 -18 10 -14
5 3 7 12 3 20 -7 21 -13 19 -13 -6z M1340 4500 c6 -11 14 -18 19 -16 4 3 24 1
44 -4 53 -11 46 5 -10 24 -60 21 -66 20 -53 -4z M4288 4503 c-45 -5 -48 -17
-10 -36 25 -13 57 -15 69 -4 7 7 -7 47 -15 45 -4 -1 -24 -3 -44 -5z M5760
4495 c0 -16 16 -20 24 -6 3 5 -1 11 -9 15 -9 3 -15 0 -15 -9z M7842 4483 c2
-23 8 -28 31 -29 33 -1 34 6 4 34 -31 29 -39 28 -35 -5z M8202 4498 c5 -15 37
-18 41 -3 1 6 -9 12 -22 13 -16 3 -22 -1 -19 -10z M2738 4493 c-43 -7 -35 -30
10 -29 25 1 37 6 37 15 0 17 -10 19 -47 14z M4455 4490 c-3 -5 1 -10 9 -10 8
0 18 5 21 10 3 6 -1 10 -9 10 -8 0 -18 -4 -21 -10z M1575 4480 c-19 -8 -19 -9
2 -9 12 -1 25 4 28 9 7 12 -2 12 -30 0z M8305 4470 c-3 -5 13 -9 41 -8 29 0
41 4 33 9 -19 12 -66 11 -74 -1z M8951 4383 c-1 -28 -11 -58 -31 -90 -31 -48
-31 -48 -9 -58 17 -7 25 -5 40 14 19 23 26 71 11 71 -4 0 -6 15 -4 34 2 18 2
42 -1 52 -3 11 -5 0 -6 -23z" fill="#5C8CA6"/>
</g>
</svg>